<svg version="1.1" xmlns="http://www.w3.org/2000/svg" xmlns:xlink="http://www.w3.org/1999/xlink" class="sprite">

<symbol id="about-icon" viewBox="0 0 23 44"><path fill="#6e6d6b" d="M9.1 18.62c.46-1.2-.14-1.81-.68-1.81-2.48 0-5.7 5.83-6.9 5.83-.47 0-.87-.47-.87-.88 0-1.2 2.95-4.01 3.82-4.89 2.68-2.54 6.16-4.48 10.05-4.48 2.88 0 5.96 1.74 3.55 8.24l-4.82 13.06c-.4 1-1.14 2.68-1.14 3.75 0 .47.26.94.8.94 2 0 5.7-5.7 6.63-5.7.34 0 .8.4.8 1.01 0 1.94-7.83 10.25-14.6 10.25-2.41 0-4.08-1.14-4.08-3.68 0-3.22 2.27-8.71 2.74-9.85zm8.16-8.64a5.42 5.42 0 0 0 5.56-5.37c0-2.74-1.94-4.55-4.62-4.55a5.5 5.5 0 0 0-5.5 5.36c0 2.75 1.82 4.56 4.56 4.56z"/></symbol>
<symbol id="blog-icon" viewBox="0 0 41 41"><path fill="#6e6d6b" d="M20.17 1a19.67 19.67 0 0 1 19.84 19.83 19.67 19.67 0 0 1-19.84 19.84A19.67 19.67 0 0 1 .33 20.83 19.67 19.67 0 0 1 20.17.99zM9.26 19.94c.12-2.5.82-5.66 1.98-8.8a25.48 25.48 0 0 1-4.55-2.46A17.71 17.71 0 0 0 2.2 19.95zM2.2 21.7a17.71 17.71 0 0 0 4.49 11.27c1.23-.88 2.8-1.7 4.55-2.45a27.8 27.8 0 0 1-1.98-8.82zM15.15 3.5c-2.74.7-5.19 2.1-7.23 3.97 1.05.76 2.39 1.51 3.91 2.16a27.87 27.87 0 0 1 3.32-6.13zM7.92 34.2a16.22 16.22 0 0 0 7.23 3.9 24.43 24.43 0 0 1-3.26-6.13c-1.52.65-2.86 1.4-3.97 2.22zm11.37-20.84c-1.98-.12-4.25-.7-6.47-1.63a26.2 26.2 0 0 0-1.81 8.22h8.28zm-8.28 8.34a27.3 27.3 0 0 0 1.81 8.23 20.32 20.32 0 0 1 6.47-1.63v-6.6zm8.28-18.9a9.9 9.9 0 0 0-1.8.17 35.26 35.26 0 0 0-4.15 7.3c1.93.7 4.03 1.17 5.95 1.28zm0 27.3c-1.86.12-3.9.53-5.89 1.23a31.91 31.91 0 0 0 4.09 7.35 9.9 9.9 0 0 0 1.8.18zm1.75-18.55A21.8 21.8 0 0 0 27 10.27a35.26 35.26 0 0 0-4.15-7.3 9.92 9.92 0 0 0-1.81-.17zm0 8.4h8.29a26.2 26.2 0 0 0-1.81-8.22 20.35 20.35 0 0 1-6.48 1.63zm0 1.75v6.6c1.99.11 4.26.7 6.48 1.63a27.3 27.3 0 0 0 1.81-8.23zm0 17.16c.59 0 1.17-.06 1.81-.18a31.91 31.91 0 0 0 4.09-7.35c-1.98-.7-4.03-1.1-5.9-1.22zm11.38-31.4a16.93 16.93 0 0 0-7.23-3.96 27.87 27.87 0 0 1 3.32 6.13c1.52-.65 2.86-1.4 3.91-2.16zM25.19 38.1a16.22 16.22 0 0 0 7.23-3.9 19.72 19.72 0 0 0-3.96-2.23 24.79 24.79 0 0 1-3.27 6.13zm12.95-18.15A17.71 17.71 0 0 0 33.65 8.7c-1.23.88-2.8 1.7-4.55 2.45a30.77 30.77 0 0 1 1.98 8.81zm-7.06 1.75a27.8 27.8 0 0 1-1.98 8.82c1.75.75 3.32 1.57 4.55 2.45a17.71 17.71 0 0 0 4.49-11.27z"/></symbol>
<symbol id="contact-icon" viewBox="0 0 50 35"><path fill="#6e6d6b" d="M48.88 34.02H1.72a.97.97 0 0 1-.97-.97V1.6c0-.54.43-.97.97-.97h47.16c.53 0 .97.43.97.97v31.44c0 .53-.44.97-.97.97zm-1.82-1.94L32.79 13.55l-7.46 5-7.58-5.07-14.29 18.6zM2.68 29.9l13.46-17.5L2.68 3.43zM4.91 2.58L25.3 16.2 45.68 2.58zm29.49 9.89L47.91 30V3.42z"/></symbol>
<symbol id="home-icon" viewBox="0 0 55 47"><path fill="#6e6d6b" d="M54.23 17.8l-14.8-8.53V.86h-7.11v4.32l-5.08-2.9-27 15.53zm-7.8-2.08H8.06L27.21 4.7l7.2 4.1V2.95h2.93v7.54zm1.1 3.72H6.7v27.19h16.77V35.7h5.34v10.93h18.73zm-2.08 25.1H30.89V33.62h-9.52v10.94H8.77V21.53h36.68zm-4.19-21h-7.94v7.49h7.94zm-30.49 0h7.95v7.49h-7.95z"/></symbol>
<symbol id="work-icon" viewBox="0 0 44 44"><path fill="#6e6d6b" d="M1.78 1.16l-.62.62c-.68.69-.68 1.8 0 2.49l33.98 33.98L43.01 43l-4.76-7.87L4.27 1.16a1.76 1.76 0 0 0-2.49 0z"/></symbol>

<view id="about" viewBox="0 0 23 44" />
<view id="blog" viewBox="5 55 41 41" />
<view id="contact" viewBox="0 110 50 35" />
<view id="home" viewBox="0 160 55 47" />
<view id="work" viewBox="5 220 44 44" />

<use xlink:href="#about-icon" width="19" height="40" x="3" y="3"></use>
<use xlink:href="#blog-icon"  width="34" height="34" x="8" y="57"></use>
<use xlink:href="#contact-icon" width="50" height="35" x="0" y="110"></use>
<use xlink:href="#home-icon" width="60" height="47" x="0" y="160"></use>
<use xlink:href="#work-icon" width="40" height="40" x="5" y="220"></use>
</svg>